<?xml version="1.0" encoding="utf-8"?>
<svg xmlns="http://www.w3.org/2000/svg">
<symbol id="mark-github" viewBox="0 0 16 16"><path fill-rule="evenodd" d="M8 0C3.58 0 0 3.58 0 8c0 3.54 2.29 6.53 5.47 7.59.4.07.55-.17.55-.38 0-.19-.01-.82-.01-1.49-2.01.37-2.53-.49-2.69-.94-.09-.23-.48-.94-.82-1.13-.28-.15-.68-.52-.01-.53.63-.01 1.08.58 1.23.82.72 1.21 1.87.87 2.33.66.07-.52.28-.87.51-1.07-1.78-.2-3.64-.89-3.64-3.95 0-.87.31-1.59.82-2.15-.08-.2-.36-1.02.08-2.12 0 0 .67-.21 2.2.82.64-.18 1.32-.27 2-.27.68 0 1.36.09 2 .27 1.53-1.04 2.2-.82 2.2-.82.44 1.1.16 1.92.08 2.12.51.56.82 1.27.82 2.15 0 3.07-1.87 3.75-3.65 3.95.29.25.54.73.54 1.48 0 1.07-.01 1.93-.01 2.2 0 .21.15.46.55.38A8.013 8.013 0 0 0 16 8c0-4.42-3.58-8-8-8z"/>
</symbol>
<symbol id="repo" viewBox="0 0 12 16"><path fill-rule="evenodd" d="M4 9H3V8h1v1zm0-3H3v1h1V6zm0-2H3v1h1V4zm0-2H3v1h1V2zm8-1v12c0 .55-.45 1-1 1H6v2l-1.5-1.5L3 16v-2H1c-.55 0-1-.45-1-1V1c0-.55.45-1 1-1h10c.55 0 1 .45 1 1zm-1 10H1v2h2v-1h3v1h5v-2zm0-10H2v9h9V1z"/>
</symbol>
<symbol id="issue-opened" viewBox="0 0 14 16"><path fill-rule="evenodd" d="M7 2.3c3.14 0 5.7 2.56 5.7 5.7s-2.56 5.7-5.7 5.7A5.71 5.71 0 0 1 1.3 8c0-3.14 2.56-5.7 5.7-5.7zM7 1C3.14 1 0 4.14 0 8s3.14 7 7 7 7-3.14 7-7-3.14-7-7-7zm1 3H6v5h2V4zm0 6H6v2h2v-2z"/>
</symbol>
<symbol id="linkedin" viewBox="0 0 64 64">
    <path fill="#fff" d="M10.305 11.119h43.119v42.847H10.305z"/>
    <path d="M12.8 51.2V24.384h8.192V51.2H12.8m8.448-34.24c.064 2.304-1.664 4.16-4.416 4.16-2.56 0-4.224-1.856-4.224-4.16 0-2.368 1.728-4.16 4.352-4.16s4.288 1.792 4.288 4.16M42.752 51.2V36.352c0-3.456-1.152-5.824-4.16-5.824-2.24 0-3.584 1.6-4.224 3.136-.192.576-.256 1.344-.256 2.112V51.2H25.92V32.96c0-3.328-.128-6.144-.192-8.576h7.104l.384 3.776h.128c1.088-1.792 3.776-4.352 8.192-4.352 5.376 0 9.472 3.648 9.472 11.584V51.2h-8.256M64 5.632C64 2.56 61.44 0 58.368 0H5.632C2.56 0 0 2.56 0 5.632v52.736C0 61.44 2.56 64 5.632 64h52.736C61.44 64 64 61.44 64 58.368V5.632" fill="#1d87bd"/>

</symbol>
<symbol id="facebook" viewBox="0 0 266.893 266.895">
    <path d="M248.08 262.31c7.854 0 14.223-6.37 14.223-14.225V18.815c0-7.857-6.368-14.224-14.223-14.224H18.81c-7.857 0-14.224 6.368-14.224 14.225v229.27c0 7.855 6.366 14.225 14.224 14.225h229.27z" fill="#3C5A99"/>
    <path d="M182.41 262.31v-99.803h33.5l5.015-38.895H182.41V98.77c0-11.262 3.127-18.936 19.275-18.936l20.596-.01V45.038c-3.56-.474-15.787-1.533-30.01-1.533-29.696 0-50.026 18.126-50.026 51.413V123.6H108.66v38.896h33.584V262.3h40.15z" fill="#FFF"/>

</symbol>
<symbol id="twitter" viewBox="0 0 341.7375 277.725">
    <path fill="#6babe1" d="M107.475 277.72C67.88 277.72 31.03 266.113 0 246.22c5.485.65 11.066.98 16.725.98 32.847 0 63.08-11.21 87.074-30.013-30.68-.566-56.574-20.836-65.495-48.69a70.083 70.083 0 0 0 13.19 1.256c6.395 0 12.59-.856 18.473-2.458-32.074-6.44-56.242-34.778-56.242-68.748 0-.296 0-.588.006-.88a69.83 69.83 0 0 0 31.756 8.768c-18.812-12.573-31.19-34.033-31.19-58.356 0-12.85 3.457-24.894 9.492-35.25 34.58 42.42 86.24 70.33 144.512 73.255a70.387 70.387 0 0 1-1.816-15.978c0-38.718 31.393-70.11 70.114-70.11 20.165 0 38.386 8.515 51.176 22.142a140.382 140.382 0 0 0 44.52-17.016c-5.233 16.372-16.35 30.112-30.826 38.79 14.182-1.695 27.695-5.464 40.27-11.04-9.4 14.06-21.29 26.408-34.986 36.293.135 3.007.202 6.03.202 9.07 0 92.65-70.52 199.488-199.475 199.488"/>

</symbol>
<symbol id="google+" viewBox="0 0 134.658 131.646">
    <path fill="#DC4A38" d="M126.52 4.11H8.14A3.938 3.938 0 0 0 4.2 8.046v115.55a3.94 3.94 0 0 0 3.94 3.942h118.37a3.94 3.94 0 0 0 3.94-3.943V8.057c0-2.176-1.77-3.94-3.94-3.94z"/>
    <path fill="#FFF" d="M70.48 71.845l-3.984-3.093c-1.213-1.006-2.872-2.334-2.872-4.765 0-2.44 1.66-3.993 3.1-5.43 4.64-3.652 9.275-7.54 9.275-15.73 0-8.423-5.3-12.854-7.84-14.956h6.848l7.19-4.516h-21.78c-5.976 0-14.588 1.414-20.893 6.62-4.752 4.1-7.07 9.752-7.07 14.84 0 8.64 6.633 17.397 18.346 17.397 1.107 0 2.317-.108 3.535-.22-.547 1.33-1.1 2.438-1.1 4.32 0 3.43 1.763 5.534 3.317 7.527-4.977.342-14.268.893-21.117 5.103-6.523 3.88-8.508 9.525-8.508 13.51 0 8.202 7.73 15.842 23.762 15.842 19.01 0 29.073-10.52 29.073-20.932 0-7.65-4.42-11.415-9.284-15.513zM56 59.107c-9.51 0-13.818-12.294-13.818-19.712 0-2.888.547-5.87 2.428-8.2 1.773-2.217 4.86-3.656 7.744-3.656 9.168 0 13.923 12.403 13.923 20.38 0 1.997-.22 5.534-2.762 8.09-1.778 1.775-4.753 3.097-7.515 3.097zm.11 44.543c-11.827 0-19.453-5.657-19.453-13.523 0-7.864 7.07-10.524 9.504-11.405 4.64-1.56 10.612-1.78 11.608-1.78 1.105 0 1.658 0 2.538.112 8.407 5.983 12.056 8.965 12.056 14.63 0 6.858-5.64 11.966-16.253 11.966zm42.283-44.712V47.863h-5.47v11.075H81.866v5.53h11.057v11.144h5.47V64.47h11.117v-5.532z"/>

</symbol>
<symbol id="youtube" viewBox="0 0 100 99.148132">
    <path d="M84.184 0h-69.21C6.703 0 0 6.704 0 14.973v69.203c0 8.27 6.704 14.973 14.973 14.973h69.21c8.27 0 14.973-6.705 15.817-14.692V15.256C99.157 6.706 92.452 0 84.184 0z" fill="#e5e5e5"/>
    <path d="M20.734 10.512h6.457l.832 3.324.704 2.455.575 2.405.577 2.506.447 2.098h.256l.448-2.097.51-2.505.64-2.404.64-2.454.894-3.324h6.266l-6.65 19.946v14.167h-5.945V30.458l-6.65-19.946zM47.97 18.9c5.05 0 7.607 2.404 7.607 7.16v11.763c0 4.757-2.557 7.16-7.608 7.16s-7.608-2.403-7.608-7.16V26.06c0-4.756 2.556-7.16 7.607-7.16zm0 4.092c-1.343 0-2.047.818-2.047 2.352V38.54c0 1.482.768 2.352 2.046 2.352s2.045-.87 2.045-2.353V25.343c0-1.534-.767-2.352-2.046-2.352zm23.46 21.633l-.45-2.2c-2.3 1.893-3.644 2.558-5.242 2.558-1.342 0-2.75-.614-3.388-1.432-.703-.868-.894-1.79-.894-4.397V19.206h5.56V39c0 1.278.45 1.892 1.47 1.892.705 0 1.344-.256 2.495-1.023V19.205h5.563v25.42H71.43z"/>
    <path d="M21.2 49.254h56.148c8.27 0 14.973 6.707 14.973 14.977v13.056c0 8.27-6.703 14.973-14.972 14.973H21.2c-8.27 0-14.973-6.705-14.973-14.974V64.23c0-8.27 6.704-14.976 14.973-14.976z" fill="#cb322c"/>
    <path d="M19.342 59.06h-5.056v-4.046h15.75v4.046h-5.29v26.967h-5.404V59.06zM40.03 86.03l-.407-2c-2.092 1.72-3.312 2.326-4.765 2.326-1.22 0-2.5-.558-3.08-1.303-.64-.79-.814-1.626-.814-4V62.922h5.057v17.994c0 1.163.407 1.72 1.337 1.72.64 0 1.22-.232 2.267-.93V62.922h5.056v23.11h-4.65zm10.114-31.012H55.2v10.09c1.976-1.767 3.312-2.465 4.824-2.465 1.163 0 2.44.558 3.022 1.302.64.836.814 1.674.814 4.138v12.833c0 2.418-.175 3.255-.814 4.09-.58.793-1.86 1.35-3.08 1.35-1.512 0-2.79-.697-4.766-2.51v2.185h-5.056V55.02zm7.322 27.62c.93 0 1.337-.56 1.337-1.722V68.083c0-1.21-.407-1.72-1.337-1.72-.64 0-1.22.232-2.266.93v14.413c1.046.698 1.627.93 2.266.93zm25.512-4.701v.836c.06.605.06 1.024.06 1.256 0 4.09-2.5 6.323-7.092 6.323-4.358 0-6.8-2.325-6.8-6.51v-10.74c0-4.37 2.326-6.463 7.033-6.463 4.183 0 6.798 2.185 6.798 5.765v6.788h-8.775v5.07c0 1.673.522 2.37 1.86 2.37.64 0 1.22-.28 1.51-.697.29-.418.35-.93.35-2.603v-1.396h5.055zm-5.056-5.998v-3.907c0-1.07-.697-1.674-1.86-1.674-1.16 0-1.858.604-1.858 1.673v3.906h3.718z" fill="#FFF"/>

</symbol>
<symbol id="reddit" viewBox="0 0 256 256">
    <g stroke="#000">
        <rect transform="scale(-1 1)" x="-245.5" y="10.505" width="235.01" height="234.99" rx="35.488" ry="35.488" fill="#6bc1ff" fill-rule="evenodd" stroke-dasharray="0.5, 1" stroke-linecap="square" stroke-width=".5"/>
        <path d="M68.362 125.52c0 11.964-9.274 21.662-20.715 21.662-11.44 0-20.714-9.699-20.714-21.662 0-11.964 9.274-21.662 20.714-21.662 11.441 0 20.715 9.699 20.715 21.662zm155.718.48c0 11.964-9.274 21.662-20.715 21.662-11.44 0-20.714-9.699-20.714-21.662 0-11.964 9.274-21.662 20.714-21.662 11.441 0 20.715 9.699 20.715 21.662z" fill="#fff" stroke-width="8"/>
        <path d="M181.93 67.429c-15.654-6.425-31.604-14.038-43.571-5.715-13.857 6.381-13.196 27.28-12.143 48.572" fill="none" stroke-width="10"/>
        <path d="M211.46 157.07c0 33.334-38.27 60.358-85.479 60.358-47.208 0-85.479-27.023-85.479-60.358 0-33.333 38.271-60.357 85.479-60.357 47.209 0 85.479 27.022 85.479 60.357zm-1.67-86.427c0 10.848-8.154 19.643-18.214 19.643s-18.214-8.795-18.214-19.643c0-10.849 8.155-19.643 18.214-19.643 10.06 0 18.214 8.794 18.214 19.643z" fill="#fff" stroke-linecap="round" stroke-width="8"/>
    </g>
    <path d="M102.77 144.93c0 6.903-5.464 12.5-12.203 12.5s-12.202-5.597-12.202-12.5c0-6.904 5.463-12.5 12.202-12.5 6.74 0 12.203 5.596 12.203 12.5zm63.511-1.072c0 6.904-5.463 12.5-12.202 12.5-6.74 0-12.202-5.596-12.202-12.5 0-6.903 5.463-12.5 12.202-12.5 6.74 0 12.202 5.597 12.202 12.5z" fill="red"/>
    <path d="M89.79 178.14c27.11 19.15 47.543 11.599 67.143.714" fill="none" stroke="#000" stroke-linecap="round" stroke-width="10"/>

</symbol>
<symbol id="stackoverflow" viewBox="0 0 88.969391 113.4281">
    <path d="M63.277 72.606L19.852 62.073l2.107-8.685L65.384 63.92l-2.107 8.686m2.911-10.39l-39.79-20.332 4.066-7.958 39.79 20.332-4.066 7.958m6.129-10.764l-33.65-29.399 5.88-6.73 33.65 29.398-5.88 6.73m9.258-9.46L56.482 5.018 63.877 0 88.97 36.971l-7.395 5.019M62.582 83.469l-44.618-2.436.487-8.924 44.618 2.437-.487 8.923" fill="#e5712a"/>
    <path d="M71.833 104.49V67.467h8.929l.006 45.962H0l.002-46.001H8.94v37.062h62.894" fill="#999"/>
    <path d="M17.84 86.651h44.987v8.937H17.84z" fill="#e5712a"/>

</symbol>
<symbol id="network-workgroup" viewBox="0 0 16 16">
    <title>
        Gnome Symbolic Icon Theme
    </title>
    <path d="M1.75 4C.798 4 0 4.798 0 5.75v4.5C0 11.202.798 12 1.75 12h.125l-.781 1.563L.375 15h9.25l-.719-1.438L8.125 12h.125c.952 0 1.75-.798 1.75-1.75v-4.5C10 4.798 9.202 4 8.25 4h-6.5zM2 6h6v4H2V6z" overflow="visible"/>
    <path d="M7.75 1C6.798 1 6 1.798 6 2.75V3h8v4h-3v3.25c0 .66-.252 1.27-.656 1.75h5.281l-1.5-3h.125C15.202 9 16 8.202 16 7.25v-4.5C16 1.798 15.202 1 14.25 1h-6.5z" overflow="visible"/>

</symbol>
<symbol id="top" viewBox="0 0 16 16">
    <title>
        Gnome Symbolic Icon Theme
    </title>
    <g transform="translate(-221 -747)">
        <rect transform="matrix(0 -1 -1 0 0 0)" x="-752" y="-235" width="2" height="12" rx="0" ry="0"/>
        <path d="M229 752.56l-5.719 5.719a1.01 1.01 0 0 0-.281.719v1h1c.256 0 .523-.086.719-.282l4.28-4.28 4.282 4.28c.196.196.463.282.719.282h1v-1a1.01 1.01 0 0 0-.281-.72z"/>
    </g>

</symbol>
<symbol id="bottom" viewBox="0 0 16 16">
    <title>
        Gnome Symbolic Icon Theme
    </title>
    <g transform="translate(-161 -747)">
        <rect transform="rotate(90)" x="758" y="-175" width="2" height="12" rx="0" ry="0"/>
        <path d="M169 757.44l-5.719-5.719a1.01 1.01 0 0 1-.281-.719v-1h1c.256 0 .523.086.719.282l4.28 4.28 4.282-4.28a1.01 1.01 0 0 1 .719-.282h1v1c0 .256-.086.523-.281.72z"/>
    </g>

</symbol>
<symbol id="next" viewBox="0 0 16 16">
    <title>
        Gnome Symbolic Icon Theme
    </title>
    <path d="M11.44 8l-5.719 5.719a1.01 1.01 0 0 1-.719.281h-1v-1c0-.256.086-.523.282-.719l4.28-4.28-4.28-4.282A1.01 1.01 0 0 1 4.002 3V2h1c.256 0 .523.086.72.281z"/>

</symbol>
<symbol id="prev" viewBox="0 0 16 16">
    <title>
        Gnome Symbolic Icon Theme
    </title>
    <path d="M4.56 8l5.719 5.719c.196.196.463.281.719.281h1v-1a1.01 1.01 0 0 0-.282-.719l-4.28-4.28 4.28-4.282A1.01 1.01 0 0 0 11.998 3V2h-1a1.01 1.01 0 0 0-.72.281z"/>

</symbol>
<symbol id="share" viewBox="0 0 16 16">
    <title>
        Gnome Symbolic Icon Theme
    </title>
    <g>
        <path d="M5.969 7.969a2.969 2.969 0 1 1-5.938 0 2.969 2.969 0 1 1 5.938 0zm9.969 5a2.969 2.969 0 1 1-5.938 0 2.969 2.969 0 1 1 5.938 0zm0-10a2.969 2.969 0 1 1-5.938 0 2.969 2.969 0 1 1 5.938 0z" overflow="visible"/>
        <path d="M12.625 2.156L2.562 7.031.75 7.938l1.812.906 10.032 5.062.906-1.812-8.22-4.156 8.219-4-.875-1.782z" overflow="visible"/>
    </g>

</symbol>
<symbol id="pin" viewBox="0 0 16 16">
    <title>
        Gnome Symbolic Icon Theme
    </title>
    <path d="M10 3L7 5 4 4v7l3-1 3 2V8l5-.483L10 7z" solid-color="#000000"/>

</symbol>
<symbol id="recent" viewBox="0 0 16 16">
    <title>
        Gnome Symbolic Icon Theme
    </title>
    <path d="M7.5.01A7.492 7.492 0 0 0 .013 7.497c0 4.13 3.357 7.486 7.487 7.486s7.487-3.356 7.487-7.486A7.492 7.492 0 0 0 7.5.01zm0 1.973c3.05 0 5.513 2.464 5.513 5.514S10.55 13.01 7.5 13.01s-5.513-2.464-5.513-5.513S4.45 1.983 7.5 1.983z"/>
    <path d="M10.406 4a.5.5 0 0 0-.25.156L7.5 6.812 5.844 5.156a.5.5 0 1 0-.688.688l2 2a.5.5 0 0 0 .688 0l3-3A.5.5 0 0 0 10.406 4z"/>

</symbol>
<symbol id="avatar-default" viewBox="0 0 16 16">
    <title>
        Gnome Symbolic Icon Theme
    </title>
    <g>
        <path d="M10.555 8.094C9.849 8.717 9.015 9 8 9c-1.016 0-1.853-.29-2.559-.914-1.109.363-2.436 1.288-2.437 2.902L3 14c0 .554.446 1 1 1h8c.554 0 1-.446 1-1v-3c0-1.387-1.102-2.556-2.445-2.906z"/>
        <path d="M11 5a3 3 0 1 1-6 0 3 3 0 1 1 6 0z" overflow="visible"/>
    </g>

</symbol>
<symbol id="mail-send" viewBox="0 0 16 16">
    <title>
        Gnome Symbolic Icon Theme
    </title>
    <g transform="translate(-360 -786)">
        <path d="M361 786v2a1 1 0 0 1 0 2v1a1 1 0 1 1 0 2v1a1 1 0 0 1 0 2v1a1 1 0 0 1 0 2v2h2a1 1 0 0 1 2 0h1a1 1 0 0 1 2 0h1a1 1 0 0 1 2 0h1a1 1 0 1 1 2 0h2v-2a1 1 0 1 1 0-2v-1a1 1 0 1 1 0-2v-1a1 1 0 1 1 0-2v-1a1 1 0 1 1 0-2v-2h-2a1 1 0 1 1-2 0h-1a1 1 0 1 1-2 0h-1a1 1 0 0 1-2 0h-1a1 1 0 0 1-2 0zm2 2h11v11h-2v-2.063c0-1.066-.779-1.98-1.719-2.25-.494.48-1.07.688-1.781.688s-1.288-.208-1.781-.688c-.777.28-1.718.977-1.719 2.22V799h-2z"/>
        <circle transform="translate(322.81 476.15) scale(.92307)" cx="49.5" cy="342.5" r="2.5"/>
    </g>

</symbol>
<symbol id="mail-unread" viewBox="0 0 16 16">
    <title>
        Gnome Symbolic Icon Theme
    </title>
    <g>
        <path d="M2.781 4a1 1 0 0 0-.406 1.781l5 4 .625.5.625-.5 5-4a1 1 0 1 0-1.25-1.562L8 7.719l-4.375-3.5A1 1 0 0 0 2.781 4z" overflow="visible"/>
        <path d="M1.906 3A1 1 0 0 0 1 4v9a1 1 0 0 0 1 1h12a1 1 0 0 0 1-1V4a1 1 0 0 0-1-1H2a1 1 0 0 0-.094 0zM3 5h10v7H3V5z" overflow="visible"/>
    </g>

</symbol>
<symbol id="home" viewBox="0 0 16.013 16">
    <title>
        Gnome Symbolic Icon Theme
    </title>
    <g transform="translate(-562.994 -175)">
        <title transform="translate(405.62 -584.902)">
            go-home
        </title>
        <path d="M565.781 180a1 1 0 0 0-.781 1v7a1 1 0 0 0 1 1h10a1 1 0 0 0 1-1v-7a1 1 0 1 0-2 0v6h-8v-6a1 1 0 0 0-1.219-1z" overflow="visible"/>
        <path d="M570.906 176a1 1 0 0 0-.5.188l-7 5a1.006 1.006 0 1 0 1.188 1.625L571 178.25l6.406 4.563a1.006 1.006 0 1 0 1.188-1.625l-7-5a1 1 0 0 0-.688-.188z" overflow="visible"/>
        <path overflow="visible" d="M569 183h3v6h-3z"/>
        <rect height="1" rx="0" ry="1" transform="scale(-1 1)" width="1" x="-579" y="182"/>
        <rect height="1" rx="0" ry="1" transform="scale(-1 1)" width="1" x="-564" y="182"/>
    </g>

</symbol>
<symbol id="menu" viewBox="0 0 16 16">
    <title>
        Gnome Symbolic Icon Theme
    </title>
    <path d="M3 3h10v2H3zM3 7h10v2H3zM3 11h10v2H3z"/>

</symbol>
<symbol id="preferences" viewBox="0 0 16 16">
    <title>
        Gnome Symbolic Icon Theme
    </title>
    <g>
        <path d="M3.549.09a3.5 3.5 0 0 0-1.143.216l1.885 1.88c.387.386.387 1 0 1.387l-.711.708a.98.98 0 0 1-1.39 0L.303 2.401a3.473 3.473 0 0 0-.216 1.14 3.456 3.456 0 0 0 3.46 3.452 3.5 3.5 0 0 0 1.144-.216l1.174 1.171a2.472 2.465 0 0 1 .062 0l2.07-2.064-1.205-1.202a3.46 3.46 0 0 0 .217-1.14A3.456 3.456 0 0 0 3.549.09zm6.55 7.89l-2.07 2.064a2.472 2.465 0 0 1 .031.092l1.144 1.14a3.474 3.474 0 0 0-.217 1.14 3.456 3.456 0 0 0 3.461 3.452c.434 0 .854-.102 1.236-.247l-2.008-2.003a1.01 1.01 0 0 1 0-1.417l.68-.678a1.03 1.03 0 0 1 .71-.308c.253 0 .517.115.71.308l1.947 1.941c.105-.33.186-.683.186-1.047a3.456 3.456 0 0 0-3.46-3.452 3.5 3.5 0 0 0-1.144.216L10.1 7.979z" overflow="visible"/>
        <path d="M13.858 0l-1.542 1.438c-.452.42-.53 1.148-.267 1.706L6.161 9.14a1.492 1.488 0 0 0-.031 0 1.492 1.488 0 0 0-.84-.148 1.492 1.488 0 0 0-.867.44L.477 13.43a1.494 1.49 0 1 0 2.13 2.09l3.946-3.997a1.492 1.488 0 0 0 .297-1.738l5.888-5.965c.558.249 1.273.147 1.707-.292l1.417-1.56L13.858 0z" overflow="visible"/>
    </g>

</symbol>
<symbol id="web-browser" viewBox="0 0 16 16.004">
    <title>
        Gnome Symbolic Icon Theme
    </title>
    <g>
        <path d="M8 4.846v10.38l-2.344-2.288-1.34 2.734c-.327.74-2.033.145-1.548-.844l1.326-2.839H1.136L8 4.846z" display="block" overflow="visible"/>
        <path d="M7.156 1.063C3.33 1.522.578 5.02 1.063 8.843c.131 1.035.293 1.383.293 1.383l1.675-1.632A4.992 4.992 0 0 1 7.406 3.03a4.992 4.992 0 0 1 5.563 4.375c.314 2.608-1.391 5.025-3.969 5.532l.031 2s.521-.106.624-.131c3.416-.834 5.706-4.128 5.283-7.65-.46-3.827-3.955-6.555-7.782-6.095z" overflow="visible"/>
        <path d="M4.113 7.815v-.206l-.198.019.05-.393h-.117l-.115.15-.116.056-.165-.093-.017-.206.033-.225.248-.186h.199l.033-.113.247.056.182.225.033-.374.314-.262.116-.28.231-.094.133-.187.297-.056.149-.225h-.446l.28-.13h.199l.28-.094.034-.112-.1-.094-.115-.037.033-.112-.083-.169-.198.075.033-.15-.231-.13-.182.317.017.113-.182.075-.116.243-.05-.225-.313-.13-.05-.169.413-.243.182-.168.017-.206-.1-.056L4.84 4l-.082.206s-.139.027-.174.036C4.13 4.66 3.214 5.562 3 7.266c.008.04.155.268.155.268l.347.206.347.093m3.966-4.3l-.43-.168-.496.056-.611.168-.116.112.38.262v.15l-.149.15.199.392.132-.075.165-.262a5.51 5.51 0 0 0 .727-.28l.199-.505m2.529.342l-.375.094-.219.156v.125l-.375.25.094.344.219-.157.125.157.156.093.094-.28L10 4.5l.063-.094.218-.187h.094l-.094.218v.188c.09-.024.16-.051.25-.063l-.25.188v.125l-.312.219-.281-.063v-.156l-.125.062.062.157h-.219l-.125.218-.156.157-.094.03v.188l.032.157H9.03v.53l.063-.03.094-.219L9.375 6l.031-.094.282-.062.156.187.187.094-.093.187.156-.03.062-.22-.187-.218h.062l.22.156.03.219.157.219.062-.313.094-.031c.096.1.169.231.25.344h.281l.188.125-.094.093-.156.157h-.25l-.344-.094h-.188l-.125.156-.343-.375-.25-.062-.375.062-.157.094V9l.032.031.25-.156.093.094h.281l.125.156-.093.312.187.188V10l.125.25-.093.25c-.01.161 0 .307 0 .469.08.219.143.435.218.656l.063.344v.187h.125l.219-.125h.25l.375-.437-.032-.157.25-.218-.187-.188.219-.187.218-.125.094-.125-.062-.25V9.75l.187-.375.188-.25.25-.563v-.156c-.117.015-.23.023-.344.031-.072.005-.145 0-.219 0a7.442 7.442 0 0 1-.312-.78l-.157-.188-.093-.313.062-.062.219.25.25.562.156.156-.062.22.156.155.25-.25.312-.218.157-.188v-.219c-.04-.073-.055-.145-.094-.218l-.156.187-.125-.156-.188-.125v-.281l.219.218.219-.03c.101.091.192.207.28.312L13 7.28c0-.174-.2-1.02-.625-1.75S11.22 4.125 11.22 4.125l-.063.094-.218.218-.25-.25h.25l.125-.125-.47-.093-.25-.094z" opacity=".3" overflow="visible"/>
    </g>

</symbol>
<symbol id="documents" viewBox="0 0 16 16">
    <title>
        Gnome Symbolic Icon Theme
    </title>
    <g transform="translate(-542 -382)">
        <path d="M544 382c-1.09 0-2 .91-2 2v9c0 1.09.91 2 2 2h7c1.09 0 2-.91 2-2v-9c0-1.09-.91-2-2-2h-7zm0 2h7v9h-7v-9z" overflow="visible"/>
        <path d="M554 385v2h1v9h-9c0 1.09.91 2 2 2h7c1.09 0 2-.91 2-2v-9c0-1.09-.91-2-2-2z" overflow="visible"/>
        <rect x="545" y="385" rx=".5" height="1" ry=".5" width="4" overflow="visible"/>
        <rect x="545" y="387" rx=".5" height="1" ry=".5" width="5" overflow="visible"/>
        <rect x="545" y="389" rx=".5" height="1" ry=".5" width="3" overflow="visible"/>
        <rect x="545" y="391" rx=".5" height="1" ry=".5" width="5" overflow="visible"/>
    </g>

</symbol>
<symbol id="format-bold" viewBox="0 0 16 16">
    <title>
        Gnome Symbolic Icon Theme
    </title>
    <path d="M5 3v2h6c.428 0 1 .614 1 1v1H7c-.92 0-1.736.384-2.25.969S3.994 9.279 4 10c.006.72.269 1.453.781 2.031S6.091 13 7 13h7V6a3 3 0 0 0-3-3zm2 6h5v2H7c-.398 0-.567-.11-.719-.281S6.002 10.279 6 10c-.002-.28.105-.554.25-.719S6.578 9 7 9z"/>
    <path d="M4 3v2h5c.428 0 1 .614 1 1v1H5c-.92 0-1.736.384-2.25.969S1.994 9.279 2 10c.006.72.269 1.453.781 2.031S4.091 13 5 13h7V6a3 3 0 0 0-3-3zm1 6h5v2H5c-.398 0-.567-.11-.719-.281S4.002 10.279 4 10c-.002-.28.105-.554.25-.719S4.578 9 5 9z"/>

</symbol>
<symbol id="format-italic" viewBox="0 0 16 16">
    <title>
        Gnome Symbolic Icon Theme
    </title>
    <path d="M4.5 3v2h6c.428 0 .594.267.469.719l-.344 1.28-5.25.001c-1.839 0-3.125 1.352-3.5 2.75-.187.699-.162 1.479.25 2.156S3.373 13 4.281 13h6.75l.219-.719 1.656-6C13.341 4.712 12.18 3 10.5 3zm.875 6h4.688L9.5 11H4.281c-.398 0-.424-.084-.469-.156-.044-.073-.08-.293 0-.594C3.974 9.648 4.53 9 5.375 9z"/>

</symbol>
<symbol id="format-underline" viewBox="0 0 16 16">
    <title>
        Gnome Symbolic Icon Theme
    </title>
    <path d="M4 2v2h6c.428 0 1 .614 1 1v1H6c-.92 0-1.736.384-2.25.969S2.994 8.279 3 9c.006.72.269 1.453.781 2.031S5.091 12 6 12h7V5a3 3 0 0 0-3-3zm2 6h5v2H6c-.398 0-.567-.11-.719-.281S5.002 9.279 5 9c-.002-.28.105-.554.25-.719S5.578 8 6 8zM2 13v2h12v-2z"/>

</symbol>
<symbol id="format-strikethrough" viewBox="0 0 16 16">
    <title>
        Gnome Symbolic Icon Theme
    </title>
    <path d="M4 3v2h6c.428 0 1 .614 1 1h2a3 3 0 0 0-3-3zm-1 7c.006.72.269 1.453.781 2.031S5.091 13 6 13h7v-3h-2v1H6c-.398 0-.567-.11-.719-.281s-.278-.44-.28-.719zM1 7v2h14V7z"/>

</symbol>
<symbol id="list-ordered" viewBox="0 0 12 16"><path fill-rule="evenodd" d="M12 13c0 .59 0 1-.59 1H4.59C4 14 4 13.59 4 13c0-.59 0-1 .59-1h6.81c.59 0 .59.41.59 1H12zM4.59 4h6.81c.59 0 .59-.41.59-1 0-.59 0-1-.59-1H4.59C4 2 4 2.41 4 3c0 .59 0 1 .59 1zm6.81 3H4.59C4 7 4 7.41 4 8c0 .59 0 1 .59 1h6.81c.59 0 .59-.41.59-1 0-.59 0-1-.59-1zM2 1h-.72c-.3.19-.58.25-1.03.34V2H1v2.14H.16V5H3v-.86H2V1zm.25 8.13c-.17 0-.45.03-.66.06.53-.56 1.14-1.25 1.14-1.89C2.71 6.52 2.17 6 1.37 6c-.59 0-.97.2-1.38.64l.58.58c.19-.19.38-.38.64-.38.28 0 .48.16.48.52 0 .53-.77 1.2-1.7 2.06V10h3l-.09-.88h-.66l.01.01zm-.08 3.78v-.03c.44-.19.64-.47.64-.86 0-.7-.56-1.11-1.44-1.11-.48 0-.89.19-1.28.52l.55.64c.25-.2.44-.31.69-.31.27 0 .42.13.42.36 0 .27-.2.44-.86.44v.75c.83 0 .98.17.98.47 0 .25-.23.38-.58.38-.28 0-.56-.14-.81-.38l-.48.66c.3.36.77.56 1.41.56.83 0 1.53-.41 1.53-1.16 0-.5-.31-.81-.77-.94v.01z"/>
</symbol>
<symbol id="list-unordered" viewBox="0 0 12 16"><path fill-rule="evenodd" d="M2 13c0 .59 0 1-.59 1H.59C0 14 0 13.59 0 13c0-.59 0-1 .59-1h.81c.59 0 .59.41.59 1H2zm2.59-9h6.81c.59 0 .59-.41.59-1 0-.59 0-1-.59-1H4.59C4 2 4 2.41 4 3c0 .59 0 1 .59 1zM1.41 7H.59C0 7 0 7.41 0 8c0 .59 0 1 .59 1h.81c.59 0 .59-.41.59-1 0-.59 0-1-.59-1h.01zm0-5H.59C0 2 0 2.41 0 3c0 .59 0 1 .59 1h.81c.59 0 .59-.41.59-1 0-.59 0-1-.59-1h.01zm10 5H4.59C4 7 4 7.41 4 8c0 .59 0 1 .59 1h6.81c.59 0 .59-.41.59-1 0-.59 0-1-.59-1h.01zm0 5H4.59C4 12 4 12.41 4 13c0 .59 0 1 .59 1h6.81c.59 0 .59-.41.59-1 0-.59 0-1-.59-1h.01z"/>
</symbol>
<symbol id="indent-increase" viewBox="0 0 16 16">
    <title>
        Gnome Symbolic Icon Theme
    </title>
    <path d="M8 3h5v2H8zM8 7h6v2H8zM2 11h7v2H2zM2 3v1c0 .257.13.528.313.719l1.28 1.28-1.28 1.282C2.13 7.471 2 7.743 2 8v1h1c.31 0 .552-.09.75-.281l2.656-2.72L3.75 3.282C3.552 3.091 3.31 3 3 3z"/>

</symbol>
<symbol id="indent-decrease" viewBox="0 0 16 16">
    <title>
        Gnome Symbolic Icon Theme
    </title>
    <path d="M7 3H2v2h5zM8 7H2v2h6zM14 11H7v2h7zM14 3v1c0 .257-.13.528-.313.719l-1.28 1.28 1.28 1.282c.183.19.313.462.313.719v1h-1c-.31 0-.552-.09-.75-.281l-2.656-2.72 2.656-2.718c.198-.19.44-.281.75-.281z"/>

</symbol>
<symbol id="justify-left" viewBox="0 0 16 16">
    <title>
        Gnome Symbolic Icon Theme
    </title>
    <path d="M3 3h8v2H3zM3 7h10v2H3zM3 11h4v2H3z"/>

</symbol>
<symbol id="justify-center" viewBox="0 0 16 16">
    <title>
        Gnome Symbolic Icon Theme
    </title>
    <path d="M4 3h8v2H4zM3 7h10v2H3zM6 11h4v2H6z"/>

</symbol>
<symbol id="justify-right" viewBox="0 0 16 16">
    <title>
        Gnome Symbolic Icon Theme
    </title>
    <path d="M5 3h8v2H5zM3 7h10v2H3zM9 11h4v2H9z"/>

</symbol>
<symbol id="justify-fill" viewBox="0 0 16 16">
    <title>
        Gnome Symbolic Icon Theme
    </title>
    <path d="M3 3h10v2H3zM3 7h10v2H3zM3 11h10v2H3z"/>

</symbol>
<symbol id="font-select" viewBox="0 0 16.0002 16">
    <title>
        Gnome Symbolic Icon Theme
    </title>
    <path d="M0 5v1c0 .257.13.528.313.719l1.28 1.28-1.28 1.282C.13 9.471 0 9.743 0 10v1h1c.31 0 .552-.09.75-.281l2.656-2.72L1.75 5.282C1.552 5.091 1.31 5 1 5zM16 5v1c0 .257-.13.528-.313.719l-1.28 1.28 1.28 1.282c.183.19.313.462.313.719v1h-1c-.31 0-.552-.09-.75-.281l-2.656-2.72 2.656-2.718c.198-.19.44-.281.75-.281zM7 3v2h1.906C8.851 5 9 5.171 9 5.094v.937H8c-1.716 0-3.038 1.11-3.063 2.469-.012.68.32 1.353.875 1.813s1.31.718 2.188.718h3V5.094C11 3.923 10.103 3 8.906 3zm1 5.031h1v1H8c-.52 0-.78-.146-.906-.25s-.158-.178-.157-.25c.003-.144.093-.5 1.063-.5z"/>

</symbol>
<symbol id="font-size" viewBox="0 0 18 16"><path fill-rule="evenodd" d="M13.62 9.08L12.1 3.66h-.06l-1.5 5.42h3.08zM5.7 10.13S4.68 6.52 4.53 6.02h-.08l-1.13 4.11H5.7zM17.31 14h-2.25l-.95-3.25h-4.07L9.09 14H6.84l-.69-2.33H2.87L2.17 14H0l3.3-9.59h2.5l2.17 6.34L10.86 2h2.52l3.94 12h-.01z"/>
</symbol>
<symbol id="document-save" viewBox="0 0 16 16">
    <title>
        Gnome Symbolic Icon Theme
    </title>
    <path d="M4.406 9a.5.5 0 0 0-.312.219l-1 1.5a.5.5 0 1 0 .812.562l1-1.5a.5.5 0 0 0-.5-.781zm7 0a.5.5 0 0 0-.312.781l1 1.5a.5.5 0 1 0 .812-.562l-1-1.5a.5.5 0 0 0-.5-.219zM7 1v5.563L5.719 5.28A1.015 1.015 0 0 0 5 5.001L4 5v1c0 .265.093.53.281.719l3 3 .282.281h.875l.28-.281 3-3A1.01 1.01 0 0 0 12 6V5h-1c-.265 0-.53.093-.719.281l-1.28 1.282V1z"/>
    <path d="M3 11v4h10v-4zm3.344 1.438a.651.651 0 0 1 .062 0c.291-.056.6.203.594.5V13h2v-.063c-.004-.264.236-.507.5-.507s.504.243.5.507V13c0 .545-.455 1-1 1H7c-.545 0-1-.455-1-1v-.063a.515.515 0 0 1 .344-.5z" fill-rule="evenodd"/>

</symbol>
<symbol id="document-open" viewBox="0 0 16.000002 16">
    <title>
        Gnome Symbolic Icon Theme
    </title>
    <path d="M4.81.01c-.458.087-.82.533-.812 1v7h2v-6h4v3h3v3h2V4.572a1.013 1.013 0 0 0-.282-.718L11.154.29a1.012 1.012 0 0 0-.719-.281H4.998a1.464 1.464 0 0 0-.094 0 1.464 1.464 0 0 0-.094 0z"/>
    <path d="M1.03 3s-1 0-1 1l-.031 9.01c0 .833.574 1.506 1.062 1.75.489.244.938.25.938.25h12s.449-.006.937-.25c.489-.244 1.063-.917 1.063-1.75v-4H2.968l-.469 4.031a.52.52 0 0 1-.531.469.52.52 0 0 1-.469-.531l.5-4.5a.515.515 0 0 1 .406-.47.489.489 0 0 1 .094 0h.5V3z"/>

</symbol>
<symbol id="document-new" viewBox="0 0 16 16.000099">
    <title>
        Gnome Symbolic Icon Theme
    </title>
    <path d="M2.94 1a1 1 0 0 0-1 1v13a1 1 0 0 0 1 1h4a1 1 0 1 0 0-2h-3V3h5.586l2.414 2.414V8a1 1 0 1 0 2 0V5a1 1 0 0 0-.293-.707l-3-3A1 1 0 0 0 9.94 1z" fill-rule="evenodd" solid-color="#000000"/>
    <path d="M10.94 10v1.997h-2v1.996h2v1.997h2v-1.997h2v-1.996h-2V10z"/>

</symbol>
<symbol id="document-print" viewBox="0 0 16 16">
    <title>
        Gnome Symbolic Icon Theme
    </title>
    <path d="M2 4c-.5 0-1 .5-1 1v4c0 .5.5 1 1 1h1V8h10v2h1c.5 0 1-.5 1-1V5c0-.5-.5-1-1-1zm2-3v2h8V1z"/>
    <path d="M4 9v5h8V9z"/>

</symbol>
<symbol id="document-edit" viewBox="0 0 16 16">
    <title>
        Gnome Symbolic Icon Theme
    </title>
    <g fill-rule="evenodd">
        <path d="M2.68 10.29l5.85-5.85 3 2.999-5.83 5.873-4.027 1.072z"/>
        <path d="M11.64 1.67c-.2 0-.401.077-.555.23l-1.77 1.768 3.054 3.053 1.769-1.77a.783.783 0 0 0 0-1.11l-1.943-1.94a.782.782 0 0 0-.555-.231z" solid-color="#000000"/>
    </g>

</symbol>
<symbol id="document-recents" viewBox="0 0 16 16">
    <title>
        Gnome Symbolic Icon Theme
    </title>
    <path d="M7.5.01A7.492 7.492 0 0 0 .013 7.497c0 4.13 3.357 7.486 7.487 7.486s7.487-3.356 7.487-7.486A7.492 7.492 0 0 0 7.5.01zm0 1.973c3.05 0 5.513 2.464 5.513 5.514S10.55 13.01 7.5 13.01s-5.513-2.464-5.513-5.513S4.45 1.983 7.5 1.983z"/>
    <path d="M10.406 4a.5.5 0 0 0-.25.156L7.5 6.812 5.844 5.156a.5.5 0 1 0-.688.688l2 2a.5.5 0 0 0 .688 0l3-3A.5.5 0 0 0 10.406 4z"/>

</symbol>
<symbol id="edit-clear" viewBox="0 0 16 16">
    <title>
        Gnome Symbolic Icon Theme
    </title>
    <path d="M6 2L0 8l6 6h9.035A1.03 1.03 0 0 0 16 13V3c0-.53-.346-1-1.009-1zm1 3h1.031c.255.011.51.129.688.313L10 6.593l1.313-1.28c.265-.231.446-.306.687-.313h1v1c0 .286-.034.55-.25.75l-1.281 1.281 1.25 1.25c.188.188.281.454.281.719v1h-1c-.265 0-.53-.093-.719-.281l-1.28-1.281-1.282 1.28A1.015 1.015 0 0 1 8 11H7v-1c0-.265.093-.53.281-.719l1.282-1.25L7.28 6.75A.909.909 0 0 1 7 6z"/>

</symbol>
<symbol id="edit-clear-all" viewBox="0 0 16 16">
    <title>
        Gnome Symbolic Icon Theme
    </title>
    <path d="M11.09.05a1 1 0 0 0-.887.504L6.891 6.179a1 1 0 1 0 1.722 1.016l3.313-5.625A1 1 0 0 0 11.09.05z" solid-color="#000000"/>
    <path d="M5.22 5.09l4.947 3.054c.604.315.82 1.113.165 1.597l-.622.216-6.019-3.521.018-.907c.289-.586.754-.816 1.511-.439z"/>
    <path d="M3.05 7.49l5.99 3.475-1.045 1.542a.458.458 0 0 0 .089.707l.95.817h-5.37c-2.19 0-3.197-2.064-2.143-3.889z" solid-color="#000000"/>

</symbol>
<symbol id="edit-paste" viewBox="0 0 16 16.00297">
    <title>
        Gnome Symbolic Icon Theme
    </title>
    <g transform="translate(-60 -668)">
        <path d="M64.031 673.031V680h5l1.991-1.987-.022-4.982h-6.969z"/>
        <rect x="65" y="668" rx=".53" ry=".53" height="4" width="5.063"/>
        <path d="M62.5 669c-.293 0-.647.036-1 .313-.353.276-.531.768-.531 1.125v12.03c0 .385.127.816.437 1.126.286.285.71.386 1.094.375V684h9.969c.363 0 .76-.128 1.062-.406.303-.279.469-.711.469-1.125v-12.094c0-.333-.119-.73-.406-1a1.444 1.444 0 0 0-.969-.375h-1.656v2H72v11h-9.031v-11h.968v-2H62.5z" overflow="visible"/>
    </g>

</symbol>
<symbol id="edit-copy" viewBox="0 0 16 16">
    <title>
        Gnome Symbolic Icon Theme
    </title>
    <path d="M7 7v6.969h5l1.99-1.987L13.97 7H7z"/>
    <path d="M2 2v7.969L6 10V6h3l-.031-4H2z"/>

</symbol>
<symbol id="edit-cut" viewBox="0 0 16 16.010475">
    <title>
        Gnome Symbolic Icon Theme
    </title>
    <path d="M3.5 9C1.579 9 0 10.579 0 12.5S1.579 16 3.5 16 7 14.421 7 12.5 5.421 9 3.5 9zm0 2c.84 0 1.5.66 1.5 1.5S4.34 14 3.5 14 2 13.34 2 12.5 2.66 11 3.5 11zm9-2C10.579 9 9 10.579 9 12.5s1.579 3.5 3.5 3.5 3.5-1.579 3.5-3.5S14.421 9 12.5 9zm0 2c.84 0 1.5.66 1.5 1.5s-.66 1.5-1.5 1.5-1.5-.66-1.5-1.5.66-1.5 1.5-1.5z" solid-color="#000000"/>
    <path d="M3.096 0c-1.06.554-1.407 1.76-.794 2.719L6.722 10l-1.746 2.368 1.414 2.085L8 11.97l1.579 2.484 1.4-1.997L9.279 10l4.42-7.281c.612-.96.266-2.165-.794-2.719L8 8z"/>

</symbol>
<symbol id="edit-undo" viewBox="0 0 16 16">
    <title>
        Gnome Symbolic Icon Theme
    </title>
    <path d="M4 6v2h6.5c.84 0 1.5.66 1.5 1.5s-.66 1.5-1.5 1.5H10v2h.5c1.921 0 3.5-1.579 3.5-3.5S12.421 6 10.5 6z"/>
    <path d="M7 3.02v1c0 .257-.13.528-.313.719l-2.28 2.28 2.28 2.282c.183.19.313.462.313.719v1H6c-.31 0-.552-.09-.75-.281l-3.656-3.72L5.25 3.302c.198-.19.44-.281.75-.281z"/>

</symbol>
<symbol id="edit-redo" viewBox="0 0 16 16">
    <title>
        Gnome Symbolic Icon Theme
    </title>
    <path d="M5.5 6C3.579 6 2 7.579 2 9.5S3.579 13 5.5 13H6v-2h-.5C4.66 11 4 10.34 4 9.5S4.66 8 5.5 8H12V6z"/>
    <path d="M9 3v1c0 .257.13.528.313.719L11.592 7l-2.28 2.281C9.13 9.471 9 9.743 9 10v1h1c.31 0 .552-.09.75-.281l3.656-3.72-3.656-3.718C10.552 3.091 10.31 3 10 3z"/>

</symbol>
<symbol id="edit-select-all" viewBox="0 0 16 15.973852">
    <title>
        Gnome Symbolic Icon Theme
    </title>
    <path solid-color="#000000" d="M1 1h1v1H1zM3 1h1v1H3zM5 1h1v1H5zM7 1h1v1H7zM9 1h1v1H9zM11 1h1v1h-1zM13 1h1v1h-1zM13 3h1v1h-1zM13 5h1v1h-1zM13 7h1v1h-1zM13 9h1v1h-1zM13 11h1v1h-1zM13 13h1v1h-1zM11 13h1v1h-1zM9 13h1v1H9zM7 13h1v1H7zM5 13h1v1H5zM3 13h1v1H3zM1 13h1v1H1zM1 11h1v1H1zM1 9h1v1H1zM1 7h1v1H1zM1 5h1v1H1zM1 3h1v1H1zM3 8.1h4v4H3zM8 8.1h4v4H8zM3 3h9v4H3z"/>

</symbol>
<symbol id="insert-image" viewBox="0 0 16 16">
    <title>
        Gnome Symbolic Icon Theme
    </title>
    <path d="M2 0v9h12V0zm2 2h8v5H4z"/>
    <path d="M5 5c2.32 1 3.045-1.66 6 0v1H5z" opacity=".35"/>
    <path d="M11.004 11.04h-1.001c-.257 0-.53.13-.72.313l-1.282 1.283-1.283-1.283c-.19-.183-.462-.313-.72-.313h-1v1.001c0 .31.09.553.28.751l2.723 2.66 2.721-2.66c.192-.198.282-.441.282-.75V11.04z"/>

</symbol>
<symbol id="insert-link" viewBox="0 0 16 15.981833">
    <title>
        Gnome Symbolic Icon Theme
    </title>
    <path d="M11.001 11.98h-1c-.257 0-.529.108-.719.261l-1.281 1.07-1.282-1.07A1.202 1.202 0 0 0 6 11.98H5v.835c0 .259.09.462.282.627l2.741 2.533 2.697-2.533a.78.78 0 0 0 .281-.627v-.835zM9.804 4.04a.936 1.01 0 0 0 .185 1.998h4.937a.936 1.01 0 1 0 0-1.998H9.989a.936 1.01 0 0 0-.185 0zM.813 4.04c-.45.102-.79.599-.743 1.088.045.49.47.905.93.91h4.916c.535.085 1.084-.42 1.084-1 0-.578-.549-1.083-1.084-.998H1a.834.834 0 0 0-.187 0zM6.059.96a2.492 2.492 0 0 0-1.906 1.469 2.686 2.686 0 0 0-.157.531H12c-.026-.125-.053-.262-.093-.375A2.467 2.467 0 0 0 9.563.96H6.434c-.127 0-.253-.018-.375 0zm-2.063 6c.236 1.132 1.24 2 2.438 2h3.129c1.197 0 2.202-.868 2.437-2z"/>

</symbol>
<symbol id="spell-check" viewBox="0 0 16 16">
    <title>
        Gnome Symbolic Icon Theme
    </title>
    <path d="M3 3v2h1.906C4.851 5 5 5.171 5 5.094v.937H4C2.284 6.031.962 7.141.937 8.5c-.012.68.32 1.353.875 1.813s1.31.718 2.188.718h3V5.094C7 3.923 6.103 3 4.906 3zm1 5.031h1v1H4c-.52 0-.78-.146-.906-.25s-.158-.178-.156-.25c.002-.144.092-.5 1.062-.5zM8 2v9.031h3c.939 0 1.782-.382 2.313-.969s.76-1.332.75-2.062c-.01-.73-.286-1.454-.813-2.031S11.921 5 11 5h-1V2zm2 5h1c.422 0 .62.135.781.313s.278.442.281.718c.005.276-.098.52-.25.688-.151.168-.353.312-.812.312h-1zM3 11.28l-.344.375-2 2a.5.5 0 1 0 .688.687L3 12.686l1.656 1.656.344.375.344-.375L7 12.686l1.656 1.656.344.375.344-.375L11 12.686l1.656 1.656.344.375.343-.375 2-2a.5.5 0 1 0-.687-.687L13 13.311l-1.656-1.656L11 11.28l-.344.375L9 13.311l-1.656-1.656L7 11.28l-.344.375L5 13.311l-1.656-1.656z"/>

</symbol>
<symbol id="color-select" viewBox="0 0 16 16">
    <title>
        Gnome Symbolic Icon Theme
    </title>
    <g transform="translate(-261 -767)">
        <path d="M265 781.43a1.573 1.573 0 0 1-3.145 0c0-.868 1.795-3.347 1.795-3.347s1.35 2.479 1.35 3.347z" clip-rule="evenodd"/>
        <path d="M271 769l-6 6-1 2.442.492.558 2.508-1 6-6zm0 1l1 1-4 4h-2z"/>
        <circle transform="translate(282.5 215.5)" cx="-10.25" cy="554.25" r="2.75"/>
        <path d="M267.59 769l.688.719 4 4 .718.687 1.125-1.125-.406-1-4-4-1.156-.25z"/>
    </g>

</symbol>
<symbol id="download" viewBox="0 0 16 16">
    <title>
        Gnome Symbolic Icon Theme
    </title>
    <g transform="translate(-521 -195)">
        <path d="M523 203.003v1.031c.011.255.129.51.313.688l5.218 5.281.97-.003 5.218-5.278c.188-.188.281-.453.281-.719v-1h-1.707c-.265 0-.53.093-.719.282l-3.555 3.844-.003.14-.019-.14-3.584-3.844a.909.909 0 0 0-.75-.282z" overflow="visible"/>
        <rect height="2" rx=".5" ry=".5" width="2" x="528" y="202" overflow="visible"/>
        <rect height="2" rx=".5" ry=".5" width="2" x="528" y="196" overflow="visible"/>
        <rect height="2" rx=".5" ry=".45" width="2" x="528" y="199" overflow="visible"/>
    </g>

</symbol>
<symbol id="view-fullscreen" viewBox="0 0 16 16">
    <title>
        Gnome Symbolic Icon Theme
    </title>
    <path d="M1.781 9A1 1 0 0 0 1 10v4a1 1 0 0 0 1 1h4a1 1 0 1 0 0-2H3v-3a1 1 0 0 0-1.22-1z"/>
    <path d="M6.375 8.5a1 1 0 0 0-.594.281l-4.5 4.5A1.016 1.016 0 1 0 2.72 14.72l4.5-4.5A1 1 0 0 0 6.375 8.5z"/>
    <path d="M1 14h1v1H1zM9.906 1A1.001 1.001 0 1 0 10 3h3v3a1 1 0 1 0 2 0V2a1 1 0 0 0-1-1h-4a1 1 0 0 0-.094 0z"/>
    <path d="M14 1h1v1h-1z"/>
    <path d="M13.781 1a1 1 0 0 0-.5.281l-4.5 4.47a1.016 1.016 0 1 0 1.437 1.437l4.5-4.47A1 1 0 0 0 13.781 1zM1 9h1v1H1zM6 14h1v1H6zM14 6h1v1h-1zM9 1h1v1H9z"/>

</symbol></svg>