<?xml version="1.0" standalone="no"?>
<!DOCTYPE svg PUBLIC "-//W3C//DTD SVG 20010904//EN"
 "http://www.w3.org/TR/2001/REC-SVG-20010904/DTD/svg10.dtd">
<svg version="1.0" xmlns="http://www.w3.org/2000/svg"
 width="700.000000pt" height="700.000000pt" viewBox="0 0 700.000000 700.000000"
 preserveAspectRatio="xMidYMid meet">
<metadata>
Created by potrace 1.11, written by Peter Selinger 2001-2013
</metadata>
<g transform="translate(0.000000,700.000000) scale(0.100000,-0.100000)"
fill="#000000" stroke="none">
<path d="M570 6083 c-14 -2 -45 -9 -70 -15 -148 -39 -267 -178 -290 -340 -12
-83 -13 -3743 -1 -3825 18 -121 84 -223 186 -289 106 -67 38 -64 1292 -64 623
0 1133 -3 1133 -7 0 -5 -15 -38 -34 -76 -135 -267 -434 -523 -816 -699 l-105
-48 1640 1 c1524 0 1638 1 1605 17 -122 57 -255 125 -315 161 -191 116 -370
272 -467 407 -52 73 -138 219 -138 237 0 4 512 7 1138 7 1131 0 1139 0 1200
21 139 47 246 169 272 310 7 37 9 698 8 1965 l-3 1909 -24 58 c-29 72 -90 149
-154 193 -46 32 -92 49 -200 73 -33 8 -887 11 -2940 10 -1590 -1 -2903 -3
-2917 -6z m5830 -2058 l0 -1655 -2895 0 -2895 0 0 1655 0 1655 2895 0 2895 0
0 -1655z"/>
<path d="M2125 4774 c-374 -416 -680 -759 -679 -762 0 -3 306 -344 679 -759
l679 -754 228 228 c282 282 282 263 1 263 l-193 0 0 192 0 193 -320 320 -320
320 316 315 316 315 21 -29 c280 -380 432 -553 679 -770 76 -66 78 -69 72
-105 -7 -46 15 -103 48 -125 55 -36 211 -43 254 -11 15 11 13 14 -22 31 -31
15 -47 34 -76 89 -44 84 -70 107 -114 103 -31 -2 -37 3 -108 99 -41 56 -86
114 -99 130 -13 15 -57 66 -97 113 -130 152 -367 374 -530 497 -2 2 87 95 198
206 l202 202 -228 227 -227 227 -680 -755z"/>
<path d="M4098 5303 l-226 -226 530 -530 530 -530 -534 -534 -533 -533 225
-225 c124 -124 228 -224 232 -223 11 4 1349 1490 1355 1505 3 7 -155 190 -351
408 -196 217 -356 400 -356 406 0 6 -61 74 -135 151 -102 105 -451 486 -504
550 -4 4 -108 -94 -233 -219z"/>
<path d="M3152 4715 c-76 -17 -179 -62 -166 -74 5 -4 59 -46 119 -93 61 -48
157 -136 214 -198 84 -90 106 -109 113 -96 5 9 41 25 81 37 130 39 167 78 167
176 -1 127 -93 210 -274 248 -90 18 -169 18 -254 0z m323 -119 c73 -31 102
-147 49 -199 -79 -80 -239 12 -204 117 12 37 43 70 80 85 34 13 36 13 75 -3z"/>
<path d="M2785 4483 c-169 -212 -212 -491 -108 -711 73 -155 268 -272 455
-272 205 0 346 88 374 234 l7 39 -155 151 c-203 197 -320 332 -426 489 -47 70
-89 127 -93 127 -4 0 -28 -26 -54 -57z m66 -262 c19 -15 24 -29 24 -65 0 -48
-14 -69 -52 -81 -33 -9 -73 34 -73 78 0 39 33 87 60 87 10 0 28 -9 41 -19z
m45 -239 c17 -11 34 -48 34 -75 0 -34 -36 -77 -65 -77 -29 0 -65 43 -65 77 0
47 28 83 65 83 11 0 25 -4 31 -8z m172 -172 c37 -35 27 -116 -18 -140 -68 -37
-122 99 -57 145 29 20 49 19 75 -5z m242 0 c46 -46 19 -140 -40 -140 -35 0
-50 19 -57 67 -4 29 0 44 17 66 25 32 52 35 80 7z"/>
</g>
</svg>
