<svg xmlns="http://www.w3.org/2000/svg" height="1mm" width="1mm" version="1.1" viewBox="0 0 1 1">
	<g transform="translate(0,-296)">
		<path d="m0.61749 296.21-0.064989 0.065 0.15164 0.15163-0.15164 0.15164 0.064989 0.065 0.19497-0.21663zm-0.21663 0-0.19497 0.21665 0.19497 0.21663 0.064989-0.065-0.15164-0.15164 0.15164-0.15164z" fill-rule="evenodd" stroke-width=".043326" fill="#1a1a1a"/>
		<g fill-rule="evenodd" stroke-width=".72524" transform="matrix(.038458 0 0 .038458 -1.1282 296.41)">
			<path d="m39.882 2.7786 5.0752-5.0767 1.4505 1.4505-5.0767 5.0767h-1.4505z" fill="#d4aa00"/>
			<path d="m46.546-3.7406a0.37205 0.37205 0 0 0 -0.26399 0.11024l-0.84346 0.84128 1.4541 1.4541 0.84346-0.84273a0.37277 0.37277 0 0 0 0 -0.52798l-0.92613-0.92468a0.37277 0.37277 0 0 0 -0.26399 -0.11024z" overflow="visible" fill="#ff2a2a"/>
		</g>
		<g stroke-width=".26458" transform="matrix(-.044284 0 0 .044284 2.231 296.45)">
			<path fill="#28170b" d="m41.42-2.8402c-0.47625 0.34369-1.1128 0.87365-1.6179 1.411-0.04577 0.048948-0.08996 0.096044-0.13335 0.14473-0.02752 0.028575-0.05609 0.051858-0.08334 0.081492-0.01746 0.020373-0.03334 0.043127-0.05027 0.0635-0.49556 0.54769-0.98425 1.2382-1.301 1.7547 0.78793-0.60775 1.3007-1.102 1.6264-1.4473 0.0635-0.065088 0.14023-0.15002 0.2249-0.24421 0.31856-0.35322 0.77417-0.90964 1.3346-1.764z"/>
			<path fill="#784421" d="m39.794-2.8402c-0.55827 0.00794-1.3084 0.2122-1.2957 0.86783 0.01323 0.68448 0.77179 0.43974 0.83344 0.7194 0.0093-0.011906 0.02328-0.021696 0.03307-0.033073 0.05212-0.056621 0.10451-0.10266 0.1569-0.15716 0.08255-0.093133 0.16828-0.17965 0.25585-0.27279 0.29263-0.31168 0.30533-0.33073 1.0044-0.8599-0.27384-0.16404-0.59743-0.25532-0.87233-0.26458-0.03545-0.00106-0.07832-0.0002646-0.11562 0zm-0.5035 0.40481c0.21881 0 0.39608 0.1778 0.39608 0.39688a0.39661 0.39661 0 1 1 -0.39608 -0.39688zm1.9233 0.17515c-0.37518 0.59134-0.62653 0.94086-0.89165 1.2139-0.16907 0.17383-0.30771 0.34687-0.42915 0.47096-0.22199 0.23574-0.51276 0.51382-0.83344 0.81862 0.01667 0.38867 0.21431 0.72655 0.85831 0.85143 1.0313 0.20002 2.1238-0.4826 2.0137-1.8682-0.047-0.5949-0.371-1.1328-0.717-1.4868zm0.09049 1.0073a0.26458 0.26458 0 0 1 0 0.52917 0.26458 0.26458 0 0 1 0 -0.52917zm-0.1651 0.79375a0.26458 0.26458 0 0 1 0 0.5289 0.26458 0.26458 0 0 1 0 -0.52917zm-1.3203 0.52864a0.26458 0.26458 0 0 1 0 0.52917 0.26458 0.26458 0 0 1 0 -0.52917zm0.79216 0a0.26458 0.26458 0 0 1 0 0.52917 0.26458 0.26458 0 0 1 0 -0.52917zm-2.9051 0.66146c0.41063 0 0.36883-0.47308 0.56806-0.60484 0.23125-0.15266 0.43365 0.036512 0.47413 0.19209 0.0508 0.19632-0.03096 0.43154-0.29898 0.49874-0.28416 0.070908-0.70432 0.073025-0.74322-0.086254z"/>
		</g>
		<path d="m0.91413 296.13h-0.82638c-0.032465 0-0.059027 0.0266-0.059027 0.0591v0.53124c0 0.0324 0.026562 0.059 0.059027 0.059h0.3152c-0.014755 0.036-0.050763 0.0821-0.13812 0.11806h0.47221c-0.087359-0.036-0.12337-0.082-0.13812-0.11805h0.31521c0.032464 0 0.059028-0.0266 0.059028-0.059v-0.53c0-0.0325-0.026564-0.059-0.059028-0.059zm0 0.53124h-0.82638v-0.4722h0.82638z" fill-rule="evenodd" stroke-width=".059027" fill="#666"/>
	</g>
</svg>
